<?xml version="1.0" standalone="no"?>
<!DOCTYPE svg PUBLIC "-//W3C//DTD SVG 20010904//EN"
 "http://www.w3.org/TR/2001/REC-SVG-20010904/DTD/svg10.dtd">
<svg version="1.0" xmlns="http://www.w3.org/2000/svg"
 width="1482.000000pt" height="811.000000pt" viewBox="0 0 1482.000000 811.000000"
 preserveAspectRatio="xMidYMid meet">

<g transform="translate(0.000000,811.000000) scale(0.100000,-0.100000)"
fill="#000000" stroke="none">
<path d="M2625 5192 c-3 -3 -5 -495 -5 -1094 l0 -1088 240 0 241 0 -4 546 -3
546 28 23 c93 78 272 86 332 14 57 -67 60 -97 57 -636 l-1 -493 239 0 239 0
-4 478 c-4 538 -7 591 -35 692 -66 240 -229 370 -462 370 -132 0 -233 -44
-329 -142 l-58 -58 -2 422 -3 423 -233 1 c-128 0 -234 -2 -237 -4z"/>
<path d="M4715 4533 c-275 -58 -465 -278 -515 -593 -14 -94 -12 -306 4 -392
51 -268 237 -471 491 -536 44 -11 115 -23 157 -26 97 -8 271 8 372 34 90 23
246 87 281 115 l25 20 -56 141 -57 142 -57 -24 c-191 -77 -426 -92 -539 -35
-74 39 -140 137 -141 209 l0 32 437 0 436 0 -6 193 c-5 139 -12 215 -27 274
-57 237 -219 400 -445 448 -89 19 -269 18 -360 -2z m292 -369 c45 -32 73 -100
76 -180 l2 -69 -205 0 -205 0 3 43 c8 98 57 181 126 213 55 26 163 22 203 -7z"/>
<path d="M6393 4520 c-68 -34 -116 -84 -156 -164 l-25 -49 -6 74 c-4 41 -9 91
-12 112 l-6 37 -219 0 -219 0 0 -760 0 -760 235 0 235 0 0 502 0 501 26 35
c44 58 101 77 229 77 l110 0 21 205 c12 113 20 207 18 209 -2 3 -41 6 -87 9
-76 3 -86 1 -144 -28z"/>
<path d="M7515 4536 c-89 -23 -148 -58 -222 -131 l-71 -71 -7 60 c-3 34 -8 78
-11 99 l-6 37 -219 0 -219 0 0 -760 0 -760 235 0 235 0 0 543 0 543 28 26 c42
40 91 60 157 65 108 9 172 -39 194 -145 7 -35 11 -222 11 -542 l0 -490 235 0
235 0 0 543 0 543 28 26 c42 40 91 60 157 66 130 10 191 -52 206 -207 4 -42 7
-276 6 -521 l-1 -445 237 -3 237 -2 0 452 c0 586 -11 710 -77 845 -78 158
-219 243 -403 243 -166 0 -288 -59 -392 -190 l-40 -50 -37 58 c-47 71 -88 107
-170 145 -57 27 -77 31 -170 34 -65 1 -125 -3 -156 -11z"/>
<path d="M9615 4534 c-268 -60 -435 -253 -423 -487 7 -144 65 -235 197 -313
86 -50 171 -80 356 -124 198 -47 270 -96 270 -183 0 -88 -69 -132 -205 -131
-67 0 -94 5 -127 22 -55 28 -91 78 -99 133 l-6 44 -207 -1 c-113 -1 -209 -2
-213 -3 -14 -2 -8 -68 12 -134 22 -70 99 -180 162 -228 170 -133 433 -179 700
-123 94 19 178 55 253 108 74 53 115 102 153 183 24 52 27 69 26 158 -1 78 -6
113 -23 156 -56 144 -212 242 -476 298 -175 38 -243 61 -286 100 -73 65 -59
160 30 209 52 30 154 32 209 5 43 -21 82 -83 82 -130 l0 -33 230 0 230 0 0 43
c0 100 -55 214 -139 289 -53 47 -178 110 -266 134 -88 23 -349 28 -440 8z"/>
</g>
</svg>
